<svg xmlns="http://www.w3.org/2000/svg" viewBox="0 0 128 128">
  <style>
    .white{fill:#fff}
  </style>
  <circle cx="64" cy="64" r="64"/>
  <path d="M60.5 38L38 52H28c-2.2 0-4 1.8-4 4v16c0 2.2 1.8 4 4 4h10l22.5 14c.6.5 1.5 0 1.5-.8V38.8c0-.7-.8-1.2-1.5-.8zm27.2 58.8l-1.3-1.5c-.4-.4-.3-1 .1-1.4C95.1 86.3 100 75.5 100 64c0-11.8-5.1-22.9-14.1-30.5-.2-.1-.5-.4-.9-.7s-.5-.9-.2-1.3l1.1-1.7c.3-.5 1-.6 1.4-.2l1 .8C98.3 38.8 104 51 104 64c0 12.6-5.4 24.6-14.8 33-.5.3-1.1.3-1.5-.2z" class="white"/>
  <path d="M79.1 88.3l-1.2-1.6c-.3-.4-.3-1 .2-1.4C84.4 80 88 72.3 88 64s-3.6-16-10-21.3c-.4-.3-.5-1-.2-1.4l1.2-1.6c.3-.4 1-.5 1.4-.2C87.8 45.7 92 54.5 92 64s-4.2 18.3-11.5 24.4c-.4.4-1 .3-1.4-.1z" class="white"/>
  <path d="M69.6 78.2c-.4-.4-.3-1.1.1-1.4 4-3.1 6.3-7.8 6.3-12.7 0-5.1-2.3-9.8-6.3-12.7-.4-.3-.5-1-.2-1.4l1.3-1.5c.3-.4.9-.5 1.4-.2C77.1 51.8 80 57.7 80 64c0 6.1-2.9 11.9-7.7 15.8-.4.3-1 .3-1.4-.1l-1.3-1.5z" class="white"/>
</svg>